# xmcd
#
# Track frame offsets:
#	150
#	16313
#	32562
#	47717
#	63045
#	74951
#	91154
#	105293
#	122632
#	136648
#	153730
#	169948
#	183829
#	197304
#	211812
#	229021
#	244963
#	261252
#	277352
#	294321
#
# Disc length: 4144 seconds
#
# Revision: 0
# Processed by: cddbd v1.5.2PL0 Copyright (c) Steve Scherf et al.
# Submitted via: audiograbber 1.83.01
#
DISCID=19102e14
DTITLE=Country 2014 - Country 2014 [CD 1)
DYEAR=2014
DGENRE=Country
TTITLE0=Chuck Wicks - Us Again
TTITLE1=Branch And Dean - Glad She's Not An Angel
TTITLE2=Ariana Hodes - Brand New Key
TTITLE3=Brad Paisley - The Mona Lisa (Radio Edit)
TTITLE4=Craig Campbell - Keep Them Kisses Comin' (Hot Radio Mix)
TTITLE5=Brantley Gilbert - Bottoms Up
TTITLE6=Chris Young - Who Am I With You
TTITLE7=Brian Milson - Nothing Grows In Shadows
TTITLE8=Chase Rice - Ready Set Roll (Radio Edit)
TTITLE9=Billy Currington - We Are Tonight
TTITLE10=Charlie Worsham - Want Me Too
TTITLE11=Allison Veltz - Bright Side
TTITLE12=Brad Paisley - River Bank
TTITLE13=Blair Mathews - It's About Us
TTITLE14=Adrianna Freeman - No More
TTITLE15=Austin Webb - Raise 'Em Up
TTITLE16=Craig Campbell - Love Is You
TTITLE17=Cassadee Pope - I Wish I Could Break Your Heart
TTITLE18=Cole Swindell - Hope You Get Lonely Tonight
TTITLE19=Big And Rich - Look At You
EXTD=
EXTT0=
EXTT1=
EXTT2=
EXTT3=
EXTT4=
EXTT5=
EXTT6=
EXTT7=
EXTT8=
EXTT9=
EXTT10=
EXTT11=
EXTT12=
EXTT13=
EXTT14=
EXTT15=
EXTT16=
EXTT17=
EXTT18=
EXTT19=
PLAYORDER=
